<?xml version="1.0" standalone="no"?>
<!DOCTYPE svg PUBLIC "-//W3C//DTD SVG 20010904//EN"
 "http://www.w3.org/TR/2001/REC-SVG-20010904/DTD/svg10.dtd">
<svg version="1.0" xmlns="http://www.w3.org/2000/svg"
 width="225.000000pt" height="225.000000pt" viewBox="0 0 225.000000 225.000000"
 preserveAspectRatio="xMidYMid meet">
<metadata>
Created by potrace 1.14, written by Peter Selinger 2001-2017
</metadata>
<g transform="translate(0.000000,225.000000) scale(0.100000,-0.100000)"
fill="#000000" stroke="none">
<path d="M115 2231 c-48 -22 -79 -54 -100 -103 -13 -33 -15 -154 -15 -1005 0
-920 1 -970 19 -1008 22 -48 54 -79 103 -100 33 -13 154 -15 1005 -15 920 0
970 1 1008 19 48 22 79 54 100 103 13 33 15 154 15 1003 0 849 -2 970 -15
1003 -21 49 -52 81 -100 103 -38 18 -88 19 -1010 19 -922 0 -972 -1 -1010 -19z
m389 -46 c93 -71 237 -106 361 -88 70 10 185 57 241 98 19 14 23 14 47 -5 49
-39 158 -83 233 -93 124 -18 268 18 362 90 l34 26 215 -215 215 -215 -24 -39
c-33 -51 -75 -158 -89 -224 -7 -31 -9 -102 -7 -169 4 -95 10 -130 33 -191 85
-229 79 -207 80 -335 0 -132 -11 -180 -69 -290 -43 -83 -153 -191 -241 -237
-94 -49 -174 -68 -286 -68 -200 -1 -323 -40 -429 -137 l-55 -51 -55 51 c-106
97 -229 136 -429 137 -112 0 -192 19 -286 68 -88 46 -198 154 -241 237 -58
110 -69 158 -69 290 1 128 -5 106 80 335 23 61 29 96 33 191 2 67 0 138 -7
169 -14 66 -56 173 -89 224 l-24 39 213 213 c118 118 215 214 217 214 2 0 18
-11 36 -25z"/>
<path d="M1474 1741 c-101 -26 -190 -96 -233 -183 -48 -96 -46 -102 50 -123
84 -18 98 -14 99 22 0 21 63 85 97 99 51 22 159 18 210 -7 54 -26 93 -81 93
-129 0 -55 -37 -99 -126 -149 -297 -165 -425 -333 -453 -590 l-7 -71 383 0
383 0 0 90 0 90 -275 0 c-151 0 -275 3 -275 6 0 3 14 33 31 65 39 73 112 143
209 199 217 125 265 171 295 283 40 149 -37 297 -193 370 -58 27 -79 32 -162
34 -52 1 -109 -2 -126 -6z"/>
<path d="M250 1645 l0 -85 265 0 c146 0 265 -3 265 -7 0 -5 -10 -24 -21 -43
-56 -90 -135 -265 -174 -384 -47 -143 -72 -268 -82 -418 l-6 -98 90 0 90 0 6
103 c13 254 123 564 273 773 l54 75 0 85 0 84 -380 0 -380 0 0 -85z"/>
</g>
</svg>
